<?xml version="1.0" standalone="no"?>
<!DOCTYPE svg PUBLIC "-//W3C//DTD SVG 20010904//EN"
 "http://www.w3.org/TR/2001/REC-SVG-20010904/DTD/svg10.dtd">
<svg version="1.0" xmlns="http://www.w3.org/2000/svg"
 width="500.000000pt" height="500.000000pt" viewBox="0 0 500.000000 500.000000"
 preserveAspectRatio="xMidYMid meet">

<g transform="translate(0.000000,500.000000) scale(0.100000,-0.100000)"
fill="#000000" stroke="none">
<path d="M2491 4540 c-1 -14 -19 -203 -41 -420 -22 -217 -52 -505 -66 -640
-13 -135 -31 -315 -40 -400 -8 -85 -16 -159 -17 -163 -1 -5 -171 119 -377 275
-235 177 -368 271 -356 253 11 -17 120 -178 244 -360 123 -181 226 -335 229
-341 5 -15 39 -5 -362 -109 -404 -106 -507 -133 -511 -137 -2 -2 79 -25 179
-51 531 -137 697 -182 697 -189 0 -4 -110 -169 -244 -368 -134 -198 -242 -360
-239 -360 3 0 534 400 721 543 7 5 14 8 16 6 2 -2 23 -184 46 -404 90 -872
130 -1238 135 -1243 3 -3 5 6 5 19 0 13 7 87 15 164 15 143 42 404 95 925 17
162 35 350 42 418 8 87 15 122 23 118 6 -2 169 -123 361 -268 192 -145 355
-268 363 -273 13 -7 -91 148 -381 573 -54 79 -98 147 -98 151 0 3 152 46 338
95 526 137 533 139 525 147 -4 4 -150 44 -323 89 -387 100 -533 140 -539 146
-3 2 31 57 75 122 317 465 415 614 403 607 -8 -5 -176 -132 -374 -283 l-360
-274 -17 169 c-24 237 -57 544 -68 638 -5 44 -25 244 -45 445 -20 201 -40 374
-45 385 -8 18 -9 18 -9 -5z"/>
</g>
</svg>
