<?xml version="1.0" standalone="no"?>
<!DOCTYPE svg PUBLIC "-//W3C//DTD SVG 20010904//EN"
 "http://www.w3.org/TR/2001/REC-SVG-20010904/DTD/svg10.dtd">
<svg version="1.0" xmlns="http://www.w3.org/2000/svg"
 width="500.000000pt" height="500.000000pt" viewBox="0 0 500.000000 500.000000"
 preserveAspectRatio="xMidYMid meet">

<g transform="translate(0.000000,500.000000) scale(0.100000,-0.100000)"
fill="#000000" stroke="none">
<path d="M2381 3206 c-117 -265 -125 -277 -195 -297 -22 -7 -111 2 -321 31
-159 22 -301 43 -314 46 -23 5 -23 5 -5 -19 11 -14 101 -111 201 -218 185
-195 201 -220 189 -276 -4 -18 -82 -108 -207 -242 -110 -117 -199 -214 -197
-216 2 -1 140 17 308 41 168 24 320 42 338 39 67 -12 90 -46 207 -314 60 -137
113 -247 116 -243 4 4 45 95 92 202 137 315 135 312 189 338 l47 24 318 -45
c175 -24 320 -43 321 -42 2 2 -77 88 -175 192 -232 244 -233 246 -233 293 0
46 -3 43 238 298 95 101 172 185 170 187 -2 1 -140 -17 -308 -41 -168 -24
-319 -41 -336 -38 -76 14 -84 25 -204 298 -62 141 -116 256 -120 256 -4 0 -57
-114 -119 -254z"/>
</g>
</svg>
