<?xml version="1.0" standalone="no"?>
<!DOCTYPE svg PUBLIC "-//W3C//DTD SVG 20010904//EN"
 "http://www.w3.org/TR/2001/REC-SVG-20010904/DTD/svg10.dtd">
<svg version="1.0" xmlns="http://www.w3.org/2000/svg"
 width="500.000000pt" height="500.000000pt" viewBox="0 0 500.000000 500.000000"
 preserveAspectRatio="xMidYMid meet">

<g transform="translate(0.000000,500.000000) scale(0.100000,-0.100000)"
fill="#000000" stroke="none">
<path d="M1535 3461 c3 -6 159 -223 346 -483 187 -260 337 -478 335 -485 -3
-7 -159 -227 -346 -489 -188 -262 -337 -473 -331 -469 6 3 223 159 483 346
260 187 478 337 485 335 7 -3 227 -159 489 -346 262 -188 473 -337 470 -331
-4 6 -160 223 -347 483 -187 260 -337 478 -335 485 3 7 159 227 346 489 188
262 337 473 331 469 -6 -3 -223 -159 -483 -346 -260 -187 -478 -337 -485 -335
-7 3 -227 159 -489 346 -262 188 -473 337 -469 331z"/>
</g>
</svg>
